<?xml version="1.0" encoding="utf-8"?>
<!-- Generator: Adobe Illustrator 17.1.0, SVG Export Plug-In . SVG Version: 6.00 Build 0)  -->
<!DOCTYPE svg PUBLIC "-//W3C//DTD SVG 1.1//EN" "http://www.w3.org/Graphics/SVG/1.1/DTD/svg11.dtd">
<svg version="1.1" id="Rebel-Alliance" xmlns="http://www.w3.org/2000/svg" xmlns:xlink="http://www.w3.org/1999/xlink" x="0px"
	 y="0px" viewBox="0 0 953.376 1010" enable-background="new 0 0 953.376 1010" xml:space="preserve">
<path fill="#e7dd5b" d="M953.2051,483.3418C932.6787,334.1689,863.6397,220.27,742.1787,135.146l-52.8339-37.0234l26.7675,58.6987
	c7.9571,17.4228,17.9883,34.6225,28.6211,52.8511c30.8321,52.851,65.7979,112.7671,57.2071,196.6909
	c-8.6426,84.438-77.7344,186.4189-150.545,186.4189c-17.4404,0-34.7256-6.0019-51.3418-17.834
	c-27.3691-19.4803-44.7402-55.4755-48.9082-101.3466c-6.0869-66.981,16.8233-143.7539,54.4629-182.5093
	c9.4844-9.6885,21.6426-17.8682,34.5196-26.5283c4.9902-3.3438,9.9804-6.7051,14.8515-10.1861l12.4834-8.8657l-7.082-13.5644
	c-12.5186-23.9903-29.0663-45.2369-49.1475-63.1739l-7.8027-6.9795l-9.8594,3.5669c-17.4228,6.2764-30.5244,18.503-41.6875,31.69
	c6.4649-19.5835,15.0391-35.9942,25.8252-49.5074l8.1279-10.186l-7.4082-10.7349c-30.455-44.1054-59.5556-80.7509-88.9472-112.0126
	L475.7451,0l-30.1982,36.9033c-22.6958,27.5401-46.1631,56.0064-67.3325,86.4444l-6.2764,9.02l5.3672,9.5859
	c10.5464,18.8462,18.9492,37.4351,25.4312,56.3838c-10.4346-12.0898-21.6841-23.939-35.3599-33.9194l-11.7466-8.5572l-10.606,9.9292
	c-12.3813,11.6094-22.499,24.8306-32.2734,37.6402c-5.6758,7.4253-11.3432,14.8506-17.4311,21.8642L283.5728,238.79l13.7187,11.4893
	c8.4029,7.0312,16.4624,13.1699,24.1621,19.0347c14.6617,11.1464,27.3257,20.7666,38.3521,33.8164
	c44.6196,52.7485,56.0405,163.7319,23.9819,232.8569c-11.7983,25.4307-34.5884,55.7314-76.147,55.7314
	c-11.0351,0-23.0219-2.0917-35.6342-6.2587c-61.3994-20.1836-124.4712-110.2637-120.501-212.1929
	c2.8726-74.0293,35.2051-126.023,69.4331-181.0859c6.3193-10.1519,12.604-20.252,18.666-30.4556l35.3428-59.5044l-59.436,35.4453
	C92.2578,211.1987,15.751,341.1138,0,505.189l0.0684,56.52C10.666,679.2617,58.313,787.5176,134.2285,866.5205
	c76.044,79.1563,184.1553,131.9043,289.1973,141.1133c17.8599,1.5771,35.6856,2.3662,52.9966,2.3662
	c246.5327,0,433.6548-167.8301,476.7134-427.5918l0.2402-96.6655L953.2051,483.3418z M918.2569,578.0859
	c-32.3243,192.0957-165.2413,396.795-441.8345,396.795c-16.2822,0-33.0791-0.7549-49.9185-2.2295
	c-114.019-9.9971-212.6562-73.9434-266.9472-130.4639C89.1455,768.9297,44.9287,668.1836,35.1201,560.1318l-0.0771-53.2627
	c11.1631-115.7163,55.1743-213.479,126.1855-283.2895c-23.4677,42.3735-42.5195,89.0513-44.8086,148.3325
	c-4.2353,108.5317,60.6446,219.3096,144.6031,246.918c67.4355,22.1738,124.6938-3.5322,154.6172-68.0605
	c38.3266-82.6211,25.0366-206.4145-29.0147-270.3091c-13.5127-15.9995-28.2773-27.2314-43.9082-39.1152
	c-3.061-2.3149-6.1733-4.6816-9.3457-7.1338c2.4522-3.1382,4.8701-6.2934,7.2793-9.4658
	c5.959-7.7852,11.7036-15.3135,17.7485-22.2241c9.9034,9.1914,18.7945,19.875,28.0718,31.0215
	c11.1636,13.4096,22.7129,27.2656,36.7744,39.2695l34.4595,29.3921l-5.6416-44.9458
	c-5.4702-43.5908-17.8599-82.8604-38.7896-122.6616c18.7515-26.0655,39.3638-51.085,59.376-75.3667l4.7412-5.7788
	c21.3843,24.0761,42.8189,51.4277,64.9927,82.8945c-20.1328,29.8555-32.5478,68.6103-37.8808,117.9975l-3.4981,32.3589
	l28.9629-14.8505c14.4043-7.3912,24.9688-21.3497,36.166-36.1143c9.3975-12.4155,19.0352-25.1567,30.25-32.6504
	c9.5,9.6201,17.9024,20.2007,25.1387,31.6729c-0.3262,0.2231-0.668,0.4458-0.9942,0.6689
	c-13.7871,9.2598-28.0371,18.8457-40.0585,31.1582c-44.9122,46.2319-71.3536,132.6592-64.3067,210.2041
	c5.1113,56.229,27.6777,101.2437,63.5176,126.7593c22.6875,16.1543,46.8145,24.3515,71.7148,24.3515
	c91.8799,0,175.1524-117.1572,185.4922-217.955c7.9229-77.6304-16.9248-137.1519-43.6426-186.0933
	c69.0909,70.3252,110.1954,157.1128,125.0118,263.0889V578.0859z"/>
</svg>
